<?xml version="1.0" encoding="UTF-8"?><svg id="Layer_1" xmlns="http://www.w3.org/2000/svg" viewBox="0 0 750.41 500.4"><defs><style>.cls-1{fill:#341a65;}.cls-1,.cls-2,.cls-3,.cls-4,.cls-5,.cls-6{stroke-width:0px;}.cls-2{fill:#00b1d1;}.cls-7{opacity:.08;}.cls-3{fill:#476aca;}.cls-4{fill:#fff;}.cls-5{fill:#ffbc1d;}.cls-6{fill:#ff2e60;}</style></defs><g id="BACKGROUND" class="cls-7"><rect class="cls-4" x=".21" y=".2" width="750" height="500"/></g><g id="OBJECTS" class="cls-7"><rect class="cls-2" x="125.72" y=".73" width="124.76" height="62.09"/><rect class="cls-2" x="625.41" y="250.4" width="62.24" height="125.38"/><rect class="cls-5" x="500.75" y="375.4" width="124.66" height="62.5"/><rect class="cls-1" x="500.59" y="125.48" width="124.82" height="124.82"/><rect class="cls-1" x="0" y="250.68" width="250.33" height="125.35"/><rect class="cls-6" x="375.38" y="125.37" width="125.17" height="125.03"/><rect class="cls-5" x="125.41" y="125.4" width="124.92" height="125.28"/><rect class="cls-2" x="313.76" y="125.4" width="61.89" height="62.39"/><rect class="cls-2" x="375.38" y="62.9" width="62.33" height="62.33"/><rect class="cls-3" x="375.84" y="250.32" width="125.08" height="125.67"/><path class="cls-3" d="M563.56,250.22v125.28c-34.6,0-62.64-28.05-62.64-62.64,0-34.6,28.04-62.64,62.64-62.64Z"/><path class="cls-5" d="M375.27.58h125.28c0,34.6-28.05,62.64-62.64,62.64-34.6,0-62.64-28.04-62.64-62.64Z"/><path class="cls-6" d="M403.76.58h68.3c0,18.87-15.29,34.15-34.15,34.15s-34.15-15.29-34.15-34.15Z"/><path class="cls-5" d="M375.27,313.14v-62.64h62.99c-.19,34.63-28.31,62.64-62.99,62.64Z"/><path class="cls-2" d="M375.29,281.64v-31.14h31.48c-.18,17.24-14.2,31.14-31.48,31.14Z"/><polygon class="cls-1" points="312.08 375.09 313.2 375.09 312.64 375.65 312.08 375.09"/><path class="cls-2" d="M500.55,249.66v-124.17h124.86c-.38,68.64-56.13,124.17-124.86,124.17Z"/><path class="cls-5" d="M500.59,187.21v-61.73h62.4c-.36,34.17-28.14,61.73-62.4,61.73Z"/><polygon class="cls-1" points="375.84 313.32 250.55 313.32 313.2 250.68 375.84 313.32"/><polygon class="cls-3" points="340.7 313.32 285.7 313.32 313.2 285.82 340.7 313.32"/><rect class="cls-2" x="206.26" y="206.38" width="88.59" height="88.59" transform="translate(-103.87 250.59) rotate(-45)"/><polygon class="cls-6" points="250.55 313.32 250.33 250.68 313.2 250.68 250.55 313.32"/><polygon class="cls-6" points="250.56 188.04 250.33 250.68 187.91 250.68 250.56 188.04"/><rect class="cls-2" x="313.68" y=".73" width="61.41" height="62.33"/><polygon class="cls-3" points="313.68 .73 375.08 63.06 375.02 .9 313.68 .73"/><polygon class="cls-1" points="250.55 187.9 187.91 250.54 125.27 187.9 125.44 187.73 250.33 187.73 250.33 187.68 250.55 187.9"/><polygon class="cls-4" points="250.33 187.68 250.33 187.73 125.44 187.73 187.91 125.26 250.33 187.68"/><rect class="cls-3" x="168.46" y="168.45" width="38.89" height="38.89" transform="translate(-77.82 187.9) rotate(-45)"/><path class="cls-5" d="M313.2,438.63c34.59,0,62.64-28.05,62.64-62.64h-125.28c0,34.59,28.04,62.64,62.64,62.64Z"/><rect class="cls-2" x="250.56" y="313.32" width="125.28" height="62.67"/><circle class="cls-6" cx="313.06" cy="375.82" r="35"/><path class="cls-1" d="M500.92,375.99h0c-34.54,0-62.54-28-62.54-62.54v-62.95h62.54v125.49Z"/><rect class="cls-6" x="0" y="376.02" width="250.33" height="60.95"/><polygon class="cls-4" points="250.23 375.92 250.23 376.02 .31 376.02 125.32 251.02 250.23 375.92"/><rect class="cls-3" x="82.29" y="333.04" width="85.96" height="85.97" transform="translate(-229.2 198.71) rotate(-45)"/><circle class="cls-1" cx="594.63" cy="282" r="19.79"/><polygon class="cls-1" points="501.03 437.76 375.74 437.76 438.39 500.4 501.03 437.76"/><path class="cls-3" d="M404.23,437.76h68.3c0,18.86-15.29,34.15-34.15,34.15-18.86,0-34.15-15.29-34.15-34.15Z"/><rect class="cls-6" x="375.81" y="375.9" width="125.15" height="61.85"/><circle class="cls-4" cx="406.85" cy="407.32" r="19.79"/><circle class="cls-4" cx="469.4" cy="407.31" r="19.79"/><rect class="cls-6" x="250.33" y=".4" width="63.43" height="187.33"/><circle class="cls-5" cx="281.96" cy="31.9" r="19.79" transform="translate(60.03 208.72) rotate(-45)"/><circle class="cls-5" cx="281.96" cy="94.06" r="19.79" transform="translate(126.14 347.18) rotate(-76.83)"/><circle class="cls-5" cx="281.96" cy="156.23" r="19.79" transform="translate(-27.89 245.14) rotate(-45)"/><rect class="cls-2" x="0" y="436.97" width="187.33" height="63.43"/><circle class="cls-1" cx="31.48" cy="469.04" r="19.79" transform="translate(-432.24 391.88) rotate(-76.71)"/><circle class="cls-1" cx="93.65" cy="469.03" r="19.79" transform="translate(-7.31 1.52) rotate(-.89)"/><circle class="cls-1" cx="155.84" cy="469.02" r="19.79" transform="translate(-336.25 514.97) rotate(-76.96)"/><rect class="cls-1" x="643.4" y="81.19" width="88.59" height="88.59" transform="translate(112.69 523.03) rotate(-45)"/><polygon class="cls-6" points="687.7 188.12 687.91 125.48 750.35 125.48 687.7 188.12"/><polygon class="cls-6" points="687.71 62.84 687.91 125.48 625.06 125.48 687.71 62.84"/><polygon class="cls-5" points="60.09 437.02 0 376.02 .06 436.86 60.09 437.02"/><rect class="cls-6" x="187.33" y="436.81" width="62.98" height="63.59"/><polygon class="cls-5" points="187.6 436.81 250.33 500.4 250.27 436.98 187.6 436.81"/><rect class="cls-1" x="393.61" y="143.4" width="88.59" height="88.59" transform="translate(-4.46 364.62) rotate(-45)"/><path class="cls-5" d="M375.77,125.37s1.47,29.96-15.61,46.86-46.28,15.41-46.28,15.41c0,0-1.51-28.9,15.57-45.81,17.08-16.9,46.32-16.47,46.32-16.47Z"/><path class="cls-6" d="M313.88,63.06s-1.47,29.96,15.61,46.86,46.28,15.41,46.28,15.41c0,0,1.51-28.9-15.57-45.81-17.08-16.9-46.32-16.47-46.32-16.47Z"/><path class="cls-5" d="M375.83,125.37s-1.47,29.96,15.61,46.86,46.28,15.41,46.28,15.41c0,0,1.51-28.9-15.57-45.81-17.08-16.9-46.32-16.47-46.32-16.47Z"/><path class="cls-6" d="M437.72,63.06s1.47,29.96-15.61,46.86-46.28,15.41-46.28,15.41c0,0-1.51-28.9,15.57-45.81s46.32-16.47,46.32-16.47Z"/><polygon class="cls-3" points="500.55 187.7 437.88 187.36 437.91 250.34 500.55 187.7"/><polygon class="cls-4" points="250.17 187.78 375.65 313.26 375.65 187.78 250.17 187.78"/><circle class="cls-3" cx="344.71" cy="219.33" r="19.79" transform="translate(-62.26 255.55) rotate(-37.55)"/><path class="cls-2" d="M562.88,438.09s1.47,29.96-15.61,46.86-46.28,15.41-46.28,15.41c0,0-1.51-28.9,15.57-45.81,17.08-16.91,46.32-16.47,46.32-16.47Z"/><path class="cls-3" d="M500.99,375.78s-1.47,29.96,15.61,46.86c17.08,16.9,46.28,15.41,46.28,15.41,0,0,1.51-28.9-15.57-45.81-17.08-16.9-46.31-16.47-46.31-16.47Z"/><path class="cls-2" d="M562.94,438.09s-1.47,29.96,15.61,46.86c17.08,16.9,46.28,15.41,46.28,15.41,0,0,1.51-28.9-15.57-45.81-17.08-16.9-46.32-16.47-46.32-16.47Z"/><path class="cls-3" d="M624.83,375.78s1.47,29.96-15.61,46.86c-17.08,16.9-46.28,15.41-46.28,15.41,0,0-1.51-28.9,15.57-45.81,17.08-16.9,46.31-16.47,46.31-16.47Z"/><rect class="cls-2" x="563.56" y="313.56" width="61.93" height="61.93"/><polygon class="cls-1" points="563.56 313.56 625.5 313.56 625.5 375.5 563.56 313.56"/><rect class="cls-5" x="687.71" y="438.1" width="62.29" height="62.29"/><polygon class="cls-6" points="687.71 438.1 750 438.1 750 500.4 687.71 438.1"/><rect class="cls-3" x="625.41" y="438.1" width="62.29" height="62.29"/><polygon class="cls-1" points="625.41 500.4 625.41 438.1 687.71 438.1 625.41 500.4"/><rect class="cls-1" x="687.71" y="250.86" width="62.29" height="187.33"/><circle class="cls-3" cx="718.85" cy="282.35" r="19.79"/><circle class="cls-3" cx="718.85" cy="344.53" r="19.79"/><circle class="cls-3" cx="718.85" cy="406.68" r="19.79"/><path class="cls-6" d="M687.65,312.65h0c-34.54,0-62.54,28-62.54,62.54v62.95h62.54v-125.49Z"/><polygon class="cls-5" points="625.06 125.48 687.7 188.12 687.71 250.86 625.41 250.31 625.06 125.48"/><path class="cls-6" d="M687.69,251.21s1.47,29.96-15.61,46.86-46.28,15.41-46.28,15.41c0,0-1.51-28.9,15.57-45.81,17.08-16.9,46.31-16.47,46.31-16.47Z"/><path class="cls-6" d="M749.97,188.65s1.47,29.96-15.61,46.86-46.28,15.41-46.28,15.41c0,0-1.51-28.9,15.57-45.81s46.32-16.47,46.32-16.47Z"/><rect class="cls-5" x="0" y=".4" width="125.41" height="125"/><path class="cls-1" d="M125.41,63.21v62.16h-62.51c.19-34.36,28.1-62.16,62.51-62.16Z"/><path class="cls-2" d="M125.4,94.49v30.9h-31.24c.18-17.1,14.09-30.9,31.24-30.9Z"/><path class="cls-3" d="M0,.4H0C34.84.4,63.08,28.64,63.08,63.48v61.92H0S0,.4,0,.4Z"/><circle class="cls-6" cx="94.16" cy="31.9" r="19.79"/><polygon class="cls-3" points="250.7 63.04 188.06 125.68 125.42 63.04 125.59 62.87 250.48 62.87 250.48 62.82 250.7 63.04"/><polygon class="cls-1" points="250.48 62.82 250.48 62.87 125.59 62.87 188.06 .4 250.48 62.82"/><rect class="cls-5" x="168.62" y="43.59" width="38.89" height="38.89" transform="translate(10.51 151.44) rotate(-45)"/><polygon class="cls-1" points="626.04 125.48 500.55 0 500.55 125.48 626.04 125.48"/><circle class="cls-3" cx="531.51" cy="93.93" r="19.79" transform="translate(353.13 603.34) rotate(-80.72)"/><polygon class="cls-6" points="689.37 .4 560.76 .4 625.07 64.69 689.37 .4"/><polygon class="cls-2" points="625.07 64.69 625.41 125.48 750.41 .4 689.37 .4 625.07 64.69"/><polygon class="cls-3" points="750.41 .4 687.7 62.84 750.35 125.48 750.41 .4"/><circle class="cls-2" cx="281.35" cy="469.24" r="19.79"/><circle class="cls-2" cx="343.92" cy="469.24" r="19.79"/><polygon class="cls-5" points="375.74 437.76 375.84 500.4 438.39 500.4 375.74 437.76"/><polygon class="cls-2" points="500.55 97.73 500.55 152.73 473.06 125.23 500.55 97.73"/><polygon class="cls-1" points="437.97 125.36 437.97 63.07 500.26 63.07 437.97 125.36"/><path class="cls-3" d="M125.72,188.04c0,34.59-28.05,62.64-62.64,62.64v-125.28c34.59,0,62.64,28.04,62.64,62.64Z"/><rect class="cls-6" x="0" y="125.4" width="63.08" height="125.28"/><circle class="cls-1" cx="62.91" cy="187.9" r="35"/></g></svg>