<?xml version="1.0" encoding="UTF-8"?><svg id="Layer_1" xmlns="http://www.w3.org/2000/svg" viewBox="0 0 752.51 502.83"><defs><style>.cls-1{opacity:.1;}.cls-2{fill:none;stroke:#79747e;stroke-miterlimit:10;}</style></defs><g id="BACKGROUND" class="cls-1"><rect class="cls-2" x="1.11" y="1.41" width="750" height="500"/></g><g id="OBJECTS" class="cls-1"><rect class="cls-2" x="126.62" y="1.94" width="124.76" height="62.09"/><rect class="cls-2" x="626.31" y="251.61" width="62.24" height="125.38"/><rect class="cls-2" x="501.65" y="376.61" width="124.66" height="62.5"/><rect class="cls-2" x="501.49" y="126.69" width="124.82" height="124.82"/><rect class="cls-2" x=".9" y="251.89" width="250.33" height="125.35"/><rect class="cls-2" x="376.28" y="126.58" width="125.17" height="125.03"/><rect class="cls-2" x="126.31" y="126.61" width="124.92" height="125.28"/><rect class="cls-2" x="314.66" y="126.61" width="61.89" height="62.39"/><rect class="cls-2" x="376.28" y="64.11" width="62.33" height="62.33"/><rect class="cls-2" x="376.74" y="251.53" width="125.08" height="125.67"/><path class="cls-2" d="M564.46,251.43v125.28c-34.6,0-62.64-28.05-62.64-62.64s28.04-62.64,62.64-62.64h0Z"/><path class="cls-2" d="M376.17,1.79h125.28c0,34.6-28.05,62.64-62.64,62.64s-62.64-28.04-62.64-62.64h0Z"/><path class="cls-2" d="M404.66,1.79h68.3c0,18.87-15.29,34.15-34.15,34.15s-34.15-15.29-34.15-34.15Z"/><path class="cls-2" d="M376.17,314.35v-62.64h62.99c-.19,34.63-28.31,62.64-62.99,62.64Z"/><path class="cls-2" d="M376.19,282.85v-31.14h31.48c-.18,17.24-14.2,31.14-31.48,31.14Z"/><polygon class="cls-2" points="312.98 376.3 314.1 376.3 313.54 376.86 312.98 376.3"/><path class="cls-2" d="M501.45,250.87v-124.17h124.86c-.38,68.64-56.13,124.17-124.86,124.17Z"/><path class="cls-2" d="M501.49,188.42v-61.73h62.4c-.36,34.17-28.14,61.73-62.4,61.73Z"/><polygon class="cls-2" points="376.74 314.53 251.45 314.53 314.1 251.89 376.74 314.53"/><polygon class="cls-2" points="341.6 314.53 286.6 314.53 314.1 287.03 341.6 314.53"/><rect class="cls-2" x="207.16" y="207.59" width="88.59" height="88.59" transform="translate(-104.46 251.58) rotate(-45)"/><polygon class="cls-2" points="251.45 314.53 251.23 251.89 314.1 251.89 251.45 314.53"/><polygon class="cls-2" points="251.46 189.25 251.23 251.89 188.81 251.89 251.46 189.25"/><rect class="cls-2" x="314.58" y="1.94" width="61.41" height="62.33"/><polygon class="cls-2" points="314.58 1.94 375.98 64.27 375.92 2.11 314.58 1.94"/><polygon class="cls-2" points="251.45 189.11 188.81 251.75 126.17 189.11 126.34 188.94 251.23 188.94 251.23 188.89 251.45 189.11"/><polygon class="cls-2" points="251.23 188.89 251.23 188.94 126.34 188.94 188.81 126.47 251.23 188.89"/><rect class="cls-2" x="169.36" y="169.65" width="38.89" height="38.89" transform="translate(-78.41 188.89) rotate(-45)"/><path class="cls-2" d="M314.1,439.84c34.59,0,62.64-28.05,62.64-62.64h-125.28c0,34.59,28.04,62.64,62.64,62.64Z"/><rect class="cls-2" x="251.46" y="314.53" width="125.28" height="62.67"/><circle class="cls-2" cx="313.96" cy="377.03" r="35"/><path class="cls-2" d="M501.82,377.2h0c-34.54,0-62.54-28-62.54-62.54v-62.95h62.54v125.49Z"/><rect class="cls-2" x=".9" y="377.23" width="250.33" height="60.95"/><polygon class="cls-2" points="251.13 377.13 251.13 377.23 1.21 377.23 126.22 252.23 251.13 377.13"/><rect class="cls-2" x="83.19" y="334.24" width="85.96" height="85.97" transform="translate(-229.79 199.7) rotate(-45)"/><circle class="cls-2" cx="595.53" cy="283.21" r="19.79"/><polygon class="cls-2" points="501.93 438.97 376.64 438.97 439.29 501.61 501.93 438.97"/><path class="cls-2" d="M405.13,438.97h68.3c0,18.86-15.29,34.15-34.15,34.15s-34.15-15.29-34.15-34.15h0Z"/><rect class="cls-2" x="376.71" y="377.11" width="125.15" height="61.85"/><circle class="cls-2" cx="407.75" cy="408.53" r="19.79"/><circle class="cls-2" cx="470.3" cy="408.52" r="19.79"/><rect class="cls-2" x="251.23" y="1.61" width="63.43" height="187.33"/><circle class="cls-2" cx="282.86" cy="33.11" r="19.79"/><circle class="cls-2" cx="282.87" cy="95.27" r="19.79"/><circle class="cls-2" cx="282.85" cy="157.44" r="19.79" transform="translate(-28.48 246.12) rotate(-45)"/><rect class="cls-2" x=".9" y="438.18" width="187.33" height="63.43"/><circle class="cls-2" cx="32.37" cy="470.27" r="19.79" transform="translate(-432.75 393.67) rotate(-76.71)"/><circle class="cls-2" cx="94.51" cy="470.25" r="19.79"/><circle class="cls-2" cx="156.73" cy="470.18" r="19.79"/><rect class="cls-2" x="644.3" y="82.4" width="88.59" height="88.59" transform="translate(112.1 524.02) rotate(-45)"/><polygon class="cls-2" points="688.6 189.33 688.81 126.69 751.25 126.69 688.6 189.33"/><polygon class="cls-2" points="688.61 64.05 688.81 126.69 625.96 126.69 688.61 64.05"/><polygon class="cls-2" points="60.99 438.23 .9 377.23 .96 438.07 60.99 438.23"/><rect class="cls-2" x="188.23" y="438.02" width="62.98" height="63.59"/><polygon class="cls-2" points="188.5 438.02 251.23 501.61 251.17 438.19 188.5 438.02"/><rect class="cls-2" x="394.51" y="144.61" width="88.59" height="88.59" transform="translate(-5.05 365.61) rotate(-45)"/><path class="cls-2" d="M376.67,126.58s1.47,29.96-15.61,46.86-46.28,15.41-46.28,15.41c0,0-1.51-28.9,15.57-45.81,17.08-16.9,46.32-16.47,46.32-16.47h0Z"/><path class="cls-2" d="M314.78,64.27s-1.47,29.96,15.61,46.86,46.28,15.41,46.28,15.41c0,0,1.51-28.9-15.57-45.81-17.08-16.9-46.32-16.47-46.32-16.47h0Z"/><path class="cls-2" d="M376.73,126.58s-1.47,29.96,15.61,46.86,46.28,15.41,46.28,15.41c0,0,1.51-28.9-15.57-45.81-17.08-16.9-46.32-16.47-46.32-16.47h0Z"/><path class="cls-2" d="M438.62,64.27s1.47,29.96-15.61,46.86-46.28,15.41-46.28,15.41c0,0-1.51-28.9,15.57-45.81s46.32-16.47,46.32-16.47h0Z"/><polygon class="cls-2" points="501.45 188.91 438.78 188.57 438.81 251.55 501.45 188.91"/><polygon class="cls-2" points="251.07 188.99 376.55 314.47 376.55 188.99 251.07 188.99"/><circle class="cls-2" cx="345.6" cy="220.56" r="19.79" transform="translate(-62.82 256.32) rotate(-37.55)"/><path class="cls-2" d="M563.78,439.3s1.47,29.96-15.61,46.86-46.28,15.41-46.28,15.41c0,0-1.51-28.9,15.57-45.81,17.08-16.91,46.32-16.47,46.32-16.47h0Z"/><path class="cls-2" d="M501.89,376.99s-1.47,29.96,15.61,46.86c17.08,16.9,46.28,15.41,46.28,15.41,0,0,1.51-28.9-15.57-45.81-17.08-16.9-46.31-16.47-46.31-16.47h-.01Z"/><path class="cls-2" d="M563.84,439.3s-1.47,29.96,15.61,46.86c17.08,16.9,46.28,15.41,46.28,15.41,0,0,1.51-28.9-15.57-45.81-17.08-16.9-46.32-16.47-46.32-16.47h0Z"/><path class="cls-2" d="M625.73,376.99s1.47,29.96-15.61,46.86c-17.08,16.9-46.28,15.41-46.28,15.41,0,0-1.51-28.9,15.57-45.81,17.08-16.9,46.31-16.47,46.31-16.47h0Z"/><rect class="cls-2" x="564.46" y="314.77" width="61.93" height="61.93"/><polygon class="cls-2" points="564.46 314.77 626.4 314.77 626.4 376.71 564.46 314.77"/><rect class="cls-2" x="688.61" y="439.31" width="62.29" height="62.29"/><polygon class="cls-2" points="688.61 439.31 750.9 439.31 750.9 501.61 688.61 439.31"/><rect class="cls-2" x="626.31" y="439.31" width="62.29" height="62.29"/><polygon class="cls-2" points="626.31 501.61 626.31 439.31 688.61 439.31 626.31 501.61"/><rect class="cls-2" x="688.61" y="252.07" width="62.29" height="187.33"/><circle class="cls-2" cx="719.75" cy="283.56" r="19.79"/><circle class="cls-2" cx="719.75" cy="345.74" r="19.79"/><circle class="cls-2" cx="719.75" cy="407.89" r="19.79"/><path class="cls-2" d="M688.55,313.86h0c-34.54,0-62.54,28-62.54,62.54v62.95h62.54v-125.49h0Z"/><polygon class="cls-2" points="625.96 126.69 688.6 189.33 688.61 252.07 626.31 251.52 625.96 126.69"/><path class="cls-2" d="M688.59,252.42s1.47,29.96-15.61,46.86-46.28,15.41-46.28,15.41c0,0-1.51-28.9,15.57-45.81,17.08-16.9,46.31-16.47,46.31-16.47h0Z"/><path class="cls-2" d="M750.87,189.86s1.47,29.96-15.61,46.86-46.28,15.41-46.28,15.41c0,0-1.51-28.9,15.57-45.81s46.32-16.47,46.32-16.47h0Z"/><rect class="cls-2" x=".9" y="1.61" width="125.41" height="125"/><path class="cls-2" d="M126.31,64.42v62.16h-62.51c.19-34.36,28.1-62.16,62.51-62.16Z"/><path class="cls-2" d="M126.3,95.7v30.9h-31.24c.18-17.1,14.09-30.9,31.24-30.9Z"/><path class="cls-2" d="M.9,1.61h0c34.84,0,63.08,28.24,63.08,63.08v61.92H.9V1.61Z"/><circle class="cls-2" cx="95.06" cy="33.11" r="19.79"/><polygon class="cls-2" points="251.6 64.25 188.96 126.89 126.32 64.25 126.49 64.08 251.38 64.08 251.38 64.03 251.6 64.25"/><polygon class="cls-2" points="251.38 64.03 251.38 64.08 126.49 64.08 188.96 1.61 251.38 64.03"/><rect class="cls-2" x="169.52" y="44.79" width="38.89" height="38.89" transform="translate(9.92 152.43) rotate(-45)"/><polygon class="cls-2" points="626.94 126.69 501.45 1.21 501.45 126.69 626.94 126.69"/><circle class="cls-2" cx="532.44" cy="95.14" r="19.79" transform="translate(240.29 550.32) rotate(-67.44)"/><polygon class="cls-2" points="690.27 1.61 561.66 1.61 625.97 65.9 690.27 1.61"/><polygon class="cls-2" points="625.97 65.9 626.31 126.69 751.31 1.61 690.27 1.61 625.97 65.9"/><polygon class="cls-2" points="751.31 1.61 688.6 64.05 751.25 126.69 751.31 1.61"/><circle class="cls-2" cx="282.25" cy="470.45" r="19.79"/><circle class="cls-2" cx="344.82" cy="470.45" r="19.79"/><polygon class="cls-2" points="376.64 438.97 376.74 501.61 439.29 501.61 376.64 438.97"/><polygon class="cls-2" points="501.45 98.94 501.45 153.94 473.96 126.44 501.45 98.94"/><polygon class="cls-2" points="438.87 126.57 438.87 64.28 501.16 64.28 438.87 126.57"/><path class="cls-2" d="M126.62,189.25c0,34.59-28.05,62.64-62.64,62.64v-125.28c34.59,0,62.64,28.04,62.64,62.64Z"/><rect class="cls-2" x=".9" y="126.61" width="63.08" height="125.28"/><circle class="cls-2" cx="63.81" cy="189.11" r="35"/></g></svg>