<?xml version="1.0" encoding="UTF-8"?><svg id="Layer_1" xmlns="http://www.w3.org/2000/svg" viewBox="0 0 63.08 500"><defs><style>.cls-1{fill:#341a65;}.cls-1,.cls-2,.cls-3,.cls-4,.cls-5,.cls-6{stroke-width:0px;}.cls-2{fill:#00b1d1;}.cls-3{fill:#476aca;}.cls-4{fill:#fff;}.cls-5{fill:#ffbc1d;}.cls-6{fill:#ff2e60;}</style></defs><g id="OBJECTS"><rect class="cls-1" x="0" y="250.28" width="63.08" height="125.35"/><rect class="cls-2" x="0" y="436.57" width="63.08" height="63.43"/><circle class="cls-1" cx="31.47" cy="468.67" r="19.79"/><polygon class="cls-5" points="60.09 436.62 0 375.62 .06 436.46 60.09 436.62"/><rect class="cls-5" x="0" width="62.86" height="125"/><path class="cls-3" d="M0,0H0c34.84,0,63.08,28.24,63.08,63.08v61.92H0V0Z"/><rect class="cls-6" x="0" y="125" width="63.08" height="125.28"/><path class="cls-1" d="M63.08,152.07v70.87c-19.57,0-35.43-15.87-35.43-35.43s15.87-35.43,35.43-35.43Z"/><polygon class="cls-5" points="63.08 436.62 0 375.62 .06 436.46 63.08 436.62"/><polygon class="cls-4" points="63.02 375.47 63.08 314.63 0 375.63 63.02 375.47"/><polygon class="cls-6" points="62.91 375.69 0 375.63 63.08 436.62 62.91 375.69"/></g></svg>